<?xml version="1.0" encoding="UTF-8"?>
<!DOCTYPE svg PUBLIC "-//W3C//DTD SVG 1.1//EN" "http://www.w3.org/Graphics/SVG/1.1/DTD/svg11.dtd">
<!-- Creator: CorelDRAW X7 -->
<svg xmlns="http://www.w3.org/2000/svg" xml:space="preserve" width="2408px" height="2160px" version="1.1" style="shape-rendering:geometricPrecision; text-rendering:geometricPrecision; image-rendering:optimizeQuality; fill-rule:evenodd; clip-rule:evenodd"
viewBox="0 0 2408 2160"
 xmlns:xlink="http://www.w3.org/1999/xlink">
 <defs>
  <style type="text/css">
   <![CDATA[
    .fil6 {fill:#FEFEFE}
    .fil5 {fill:black}
    .fil1 {fill:#016316}
    .fil2 {fill:#8C9F33}
    .fil9 {fill:#D89F07}
    .fil3 {fill:#E4A108}
    .fil4 {fill:#EEBC03}
    .fil0 {fill:#F7D915}
    .fil10 {fill:#B78E00;fill-rule:nonzero}
    .fil8 {fill:url(#id0)}
    .fil7 {fill:url(#id1)}
   ]]>
  </style>
  <linearGradient id="id0" gradientUnits="userSpaceOnUse" x1="1202" y1="1078.24" x2="1509.11" y2="1143.52">
   <stop offset="0" style="stop-opacity:1; stop-color:#ECA400"/>
   <stop offset="0.419608" style="stop-opacity:1; stop-color:#ECA400"/>
   <stop offset="0.231373" style="stop-opacity:1; stop-color:#EDA804"/>
   <stop offset="0.34902" style="stop-opacity:1; stop-color:#F3C627"/>
   <stop offset="0.478431" style="stop-opacity:1; stop-color:#F5CD2E"/>
   <stop offset="0.74902" style="stop-opacity:1; stop-color:#F4C728"/>
   <stop offset="0.901961" style="stop-opacity:1; stop-color:#EDA704"/>
   <stop offset="1" style="stop-opacity:1; stop-color:#ECA400"/>
  </linearGradient>
  <linearGradient id="id1" gradientUnits="userSpaceOnUse" xlink:href="#id0" x1="900.016" y1="1078.24" x2="1207.12" y2="1143.52">
  </linearGradient>
 </defs>
 <g id="Layer_x0020_1">
  <metadata id="CorelCorpID_0Corel-Layer"/>
  <g id="_1968039578976">
   <polygon class="fil0" points="1204,0 1806,412 2408,825 2178,1492 1948,2160 1204,2160 460,2160 230,1492 0,825 602,412 "/>
   <polygon class="fil1" points="1204,98 1752,473 2299,848 2090,1455 1881,2062 1204,2062 527,2062 318,1455 109,848 656,473 "/>
   <path class="fil2" d="M788 1612c-14,3 -26,9 -36,18 -35,-65 -70,-98 -104,-102 -26,-2 -43,0 -68,16 -34,22 -70,3 -58,-37 -33,-24 -20,-75 30,-70 27,-37 71,-13 70,29 -1,19 12,36 36,48 9,5 10,0 4,-12 -30,-60 -55,-96 -79,-102 -24,-6 -41,-3 -53,5 -45,32 -79,-9 -59,-45 -23,-29 -10,-65 35,-55 8,-38 61,-27 66,13 5,31 -9,40 18,72 9,9 14,3 8,-11 -6,-17 -5,-42 -14,-73 -11,-42 -35,-69 -65,-75 -13,-2 -22,7 -31,12 -29,16 -67,-20 -37,-52 -24,-28 0,-65 44,-43 25,-27 67,-6 53,35 -8,24 -6,40 4,49 7,7 14,14 22,21 -2,-40 -2,-74 0,-102 1,-10 -7,-21 -17,-38 -23,-38 -34,-17 -69,-25 -32,-7 -42,-48 -14,-66 -22,-36 17,-69 55,-36 31,-18 64,11 50,47 -10,28 -26,24 -19,54 2,7 6,15 12,24 4,7 6,6 7,-3 4,-35 10,-64 16,-87 2,-10 1,-21 -5,-31 -7,-13 -12,-24 -17,-32 -8,-15 -25,-20 -44,-24 -25,-7 -31,-53 2,-61 -7,-36 38,-55 64,-20 36,-8 50,33 27,53 -20,18 -30,41 -22,72 4,14 10,14 12,1 5,-29 16,-55 30,-82 5,-9 4,-20 2,-29 -4,-18 -6,-32 -7,-41 -3,-15 -12,-26 -27,-31 -33,-13 -26,-56 9,-59 3,-45 65,-42 68,-3 33,1 36,32 18,45 -27,19 -43,34 -45,51 -3,24 -2,32 3,27 28,-31 49,-55 65,-72 8,-10 12,-23 13,-39 1,-28 -8,-44 -29,-58 -32,-21 -21,-70 23,-67 16,-37 63,-28 61,10 35,12 29,43 5,56 -33,17 -50,36 -49,58 0,11 -1,11 6,4 26,-28 52,-48 75,-66 6,-5 9,-11 10,-22 1,-28 -1,-42 -7,-45 -46,-23 -24,-79 30,-67 20,-45 75,-22 60,22 37,12 23,65 -10,66 -23,2 -31,-3 -42,9 -16,20 -22,26 -13,22 33,-15 67,-33 106,-47 16,-6 19,-24 19,-36 1,-37 55,-41 65,-11 46,-5 50,49 17,62 1,34 -40,45 -55,23 -13,-20 -15,-33 -49,-22 -35,10 -70,30 -107,57 62,5 76,-5 85,-23 13,-29 63,-24 58,13 41,7 29,47 0,54 5,32 -49,34 -60,7 -26,-59 -117,-52 -175,17 -9,11 -7,17 5,16 35,-5 55,-29 65,-51 10,-20 42,-22 51,6 47,-6 48,55 6,56 3,24 -35,38 -51,17 -25,-31 -94,-24 -127,15 -24,27 -38,49 -41,69 29,-6 45,-22 49,-48 5,-36 51,-53 63,-21 46,0 49,39 18,56 5,27 -39,44 -53,29 -26,-29 -75,-14 -105,29 -14,18 -19,45 -25,75 31,-11 43,-30 39,-58 -2,-10 0,-19 4,-25 14,-20 40,-21 49,-5 38,-21 67,27 36,48 14,29 -20,61 -50,42 -14,-9 -22,-14 -37,-8 -36,14 -55,34 -60,66 -2,18 -7,38 -9,63 25,-15 36,-31 30,-46 -7,-14 -9,-26 -6,-34 7,-19 21,-22 39,-11 33,-30 70,2 49,37 16,14 9,35 -14,43 -16,6 -30,2 -40,-3 -8,-4 -14,-2 -20,2 -28,18 -40,36 -39,56 1,14 -2,36 1,66 2,12 10,12 16,1 11,-19 12,-36 5,-50 -18,-34 7,-59 37,-49 38,-33 79,7 51,37 23,12 6,47 -22,43 -24,-3 -40,1 -56,17 -18,20 -28,33 -20,85 9,60 20,77 27,55 9,-28 12,-43 2,-47 -37,-30 -33,-64 4,-70 21,-41 70,-27 72,13 33,5 24,60 -9,62 -25,2 -36,7 -45,25 -14,27 -20,47 -4,79 33,66 48,90 51,70 3,-18 -1,-31 -12,-41 -42,-38 -35,-71 5,-69 16,-54 72,-40 66,7 38,6 34,43 -9,65 -23,11 -35,24 -37,44 -1,14 6,26 20,40 19,19 36,37 54,52z"/>
   <path class="fil3" d="M1636 1638c6,-16 6,-26 1,-31 11,-13 23,-25 33,-37l0 -1c-49,-7 -57,-79 -21,-121 3,6 2,12 1,20 -2,14 5,26 14,36 17,19 21,38 13,55 0,1 0,2 0,2 10,-11 19,-23 27,-35 -36,-1 -55,-70 -35,-115 3,5 3,11 4,20 1,14 8,24 17,33 17,16 23,34 20,52 0,1 0,1 0,2 8,-10 15,-21 21,-32 -1,-2 -1,-4 -2,-6 -38,1 -57,-69 -37,-115 3,5 3,11 4,20 1,13 8,24 17,32 16,17 23,34 19,53 1,2 2,5 4,8 7,-11 13,-22 18,-33 -2,-4 -4,-7 -5,-10 -38,3 -60,-66 -43,-113 4,4 4,11 6,19 2,14 9,24 18,32 17,16 25,33 22,51 1,3 3,7 7,12 6,-13 12,-26 18,-39 -2,-3 -3,-5 -4,-7 -38,6 -67,-60 -54,-109 4,4 5,11 7,19 3,14 12,23 22,30 18,14 27,30 26,49 1,2 3,5 6,9 6,-16 12,-32 17,-48 -1,-1 -2,-2 -2,-3 -37,11 -73,-52 -66,-101 4,3 6,10 9,18 5,13 14,21 25,27 20,11 31,27 32,45 1,2 2,3 4,5 4,-15 7,-29 10,-44 -2,-2 -3,-4 -5,-5 -34,14 -74,-49 -72,-101 5,3 7,10 10,18 6,13 16,21 27,26 20,11 32,26 35,45 1,2 3,5 6,7 3,-15 5,-30 6,-45 0,-2 0,-3 0,-5 -1,-1 -2,-2 -3,-3 -33,18 -80,-41 -82,-93 4,3 7,9 12,17 7,13 17,19 29,24 21,8 34,22 39,41 1,1 3,3 6,5 1,-15 1,-31 0,-46 -3,-2 -6,-4 -8,-6 -30,22 -83,-30 -92,-82 5,3 9,8 14,15 8,12 20,17 31,20 22,6 37,18 44,36 2,2 6,5 11,7 -1,-14 -2,-29 -4,-43 -1,0 -1,-1 -1,-1 -31,26 -93,-25 -108,-79 6,2 11,8 17,15 10,11 23,16 36,18 24,4 41,16 50,34 1,1 3,2 5,3 -2,-14 -5,-28 -8,-42 -2,-1 -4,-2 -5,-3 -29,28 -94,-19 -111,-73 6,2 10,7 17,14 11,11 24,15 37,16 24,3 42,14 52,32 2,1 4,3 8,4 -4,-15 -9,-31 -14,-46 -1,-1 -3,-1 -4,-2 -26,30 -96,-11 -118,-62 6,1 11,6 18,12 12,10 25,13 38,13 25,0 43,9 56,26 1,1 4,2 7,3 -6,-16 -12,-33 -19,-49l-1 0c-20,34 -95,6 -126,-41 6,0 12,4 20,9 13,8 27,8 40,6 24,-4 44,2 59,16 1,1 2,1 4,2 -6,-12 -12,-24 -18,-36 -21,33 -96,5 -127,-42 7,0 13,5 21,9 13,8 27,8 40,6 24,-4 44,2 58,17 1,0 2,0 2,1 -7,-13 -14,-25 -22,-36 -21,27 -94,8 -127,-30 6,-1 13,2 21,6 14,6 28,5 40,2 22,-5 41,-3 56,7 -5,-8 -11,-16 -17,-24 -2,0 -4,0 -6,-1 -18,33 -95,14 -129,-26 6,0 12,3 21,6 14,6 27,6 40,3 24,-6 44,-3 60,9 2,1 4,1 8,1 -10,-11 -19,-23 -30,-34 -5,1 -10,1 -14,1 -13,30 -87,21 -123,-9 5,-1 12,1 20,3 14,4 26,1 38,-3 21,-7 41,-6 57,3 3,0 9,0 16,-2 -7,-7 -13,-13 -20,-20 -5,1 -10,3 -13,3 -23,16 -103,16 -118,-3 5,-1 10,-3 18,-2 14,2 20,-6 30,-11 19,-9 43,-2 60,4 3,0 10,3 16,3 -9,-9 -19,-18 -29,-26 -4,1 -8,2 -11,3 -22,18 -102,22 -118,3 5,-2 10,-4 18,-3 14,1 20,-8 30,-14 18,-11 43,-4 59,1 3,0 8,2 14,3 -15,-12 -30,-23 -46,-34 -2,1 -3,1 -5,1 -6,31 -77,36 -116,14 5,-2 11,-1 19,0 14,0 25,-4 35,-10 19,-11 37,-13 53,-8 2,0 4,0 7,-1 -10,-7 -20,-13 -31,-20 -4,1 -8,2 -11,2 -8,30 -82,32 -122,9 6,-2 12,-1 20,0 14,1 26,-2 37,-8 20,-10 39,-11 56,-5 3,0 7,-1 12,-3 -8,-4 -16,-8 -24,-12 -1,-1 -1,-1 -1,-2 -2,0 -5,0 -8,-1 -4,1 -8,1 -10,1 -9,20 -73,20 -107,3 5,-1 11,0 18,1 12,1 22,-1 32,-4 18,-6 34,-7 49,-3 2,0 6,0 11,-1 -7,-4 -12,-6 -16,-6 -19,5 -38,0 -58,-15 -10,-8 -22,-14 -37,-14 -8,0 -15,1 -21,-2 46,-24 123,-11 127,27 4,1 10,3 17,6 1,0 1,0 2,0 0,-3 0,-5 2,-6 -1,-2 -2,-3 -3,-4 -16,-5 -26,-18 -27,-41 -1,-11 -5,-22 -14,-30 -6,-4 -11,-7 -13,-12 48,1 89,49 64,84 0,1 1,1 1,2 3,0 6,1 9,3 7,4 14,8 21,12 0,-2 -1,-4 -1,-6 -13,-8 -18,-22 -13,-42 2,-10 2,-21 -4,-29 -4,-6 -8,-9 -8,-14 41,13 64,65 33,89 1,2 1,5 2,8 11,8 23,15 34,23 0,-3 0,-5 -1,-7 -12,-10 -15,-26 -9,-47 3,-11 4,-23 -2,-33 -3,-6 -6,-10 -6,-16 40,19 58,78 25,101 0,2 1,5 1,8 11,9 23,18 33,26 0,-1 0,-3 0,-4 -11,-12 -14,-30 -6,-53 4,-12 6,-25 1,-37 -3,-7 -6,-12 -5,-18 38,24 52,92 18,114 0,2 0,3 0,5 10,8 19,16 29,25 1,-5 1,-9 1,-11 -11,-13 -12,-31 -2,-52 6,-11 9,-23 5,-35 -3,-7 -5,-12 -4,-17 39,27 48,92 8,110 0,3 0,7 0,12 9,9 18,18 26,27 1,-2 1,-3 0,-4 -11,-14 -10,-33 3,-56 7,-12 12,-24 8,-37 -2,-8 -5,-13 -3,-19 42,29 46,99 1,119 -1,1 -1,3 -1,5 11,12 22,24 32,37 0,-2 0,-3 0,-4 -10,-15 -9,-34 5,-56 8,-12 13,-25 10,-38 -2,-7 -5,-13 -2,-19 40,31 41,103 -5,121 0,1 0,3 -1,5 9,11 17,22 25,34 1,-4 2,-7 2,-9 -9,-14 -7,-32 9,-53 9,-10 15,-22 12,-35 -1,-8 -3,-13 0,-19 38,34 34,102 -14,115 0,3 -1,7 -3,11 4,4 6,9 9,14 5,7 9,14 13,22 3,-4 4,-6 4,-9 -6,-15 0,-30 18,-46 10,-8 17,-18 17,-30 0,-7 0,-13 3,-17 29,37 13,99 -32,102 -1,2 -3,5 -5,9 8,13 14,27 20,41 4,-4 6,-8 6,-10 -5,-15 1,-31 20,-46 10,-8 18,-17 18,-29 1,-7 0,-13 4,-17 27,38 9,99 -37,101 -1,3 -3,7 -6,11 6,14 11,28 16,43 4,-4 6,-7 6,-10 -3,-15 4,-30 22,-44 10,-7 18,-15 20,-27 1,-7 1,-13 5,-17 21,40 -1,100 -43,97 -2,3 -4,7 -7,11 5,14 9,27 12,41 3,-3 5,-5 6,-7 -2,-16 7,-31 26,-42 11,-6 19,-14 22,-26 2,-7 2,-13 6,-16 18,42 -9,99 -51,93 -2,2 -4,5 -7,9 3,12 5,25 7,38 2,-2 3,-3 4,-4 0,-16 11,-29 32,-37 12,-4 22,-11 26,-22 3,-6 5,-12 9,-14 11,44 -26,96 -66,82 -1,2 -2,3 -3,4 2,19 4,38 4,57 4,-3 6,-5 7,-6 -1,-17 11,-30 34,-39 12,-5 23,-12 27,-23 3,-7 4,-12 9,-15 14,43 -23,97 -68,86 -2,2 -5,5 -8,8 0,17 -1,34 -2,52 5,-3 8,-5 9,-7 1,-15 12,-27 35,-34 13,-4 24,-9 29,-20 3,-6 4,-11 9,-13 12,41 -28,89 -72,76 -2,2 -6,5 -11,9 -1,13 -3,27 -6,40 6,-2 9,-4 10,-5 3,-15 16,-25 39,-28 13,-2 24,-6 30,-16 4,-5 6,-10 12,-12 4,43 -41,84 -81,65 -2,2 -6,4 -11,7 -3,13 -6,26 -9,39 5,-2 9,-3 11,-5 5,-16 20,-25 43,-25 12,0 23,-2 31,-12 5,-6 8,-10 14,-11 -5,48 -57,87 -91,58 -2,2 -6,4 -11,6 -5,16 -10,32 -16,48 3,0 5,-2 6,-3 7,-17 23,-26 49,-26 14,0 27,-3 36,-12 6,-6 10,-11 16,-13 -6,52 -65,92 -103,62 -2,1 -5,3 -9,4 -4,11 -9,23 -14,34 0,0 1,-1 1,-1 10,-16 27,-22 53,-18 13,2 27,1 37,-8 7,-5 11,-9 17,-9 -13,49 -77,81 -111,45 0,1 -1,1 -2,1 -6,11 -12,22 -18,33 1,0 2,0 3,-1 10,-14 28,-18 52,-11 13,4 26,5 37,-2 7,-4 12,-8 18,-7 -19,46 -84,68 -112,30 -1,0 -2,0 -3,0 -8,13 -15,25 -24,37 4,1 7,0 9,-1 11,-14 29,-18 53,-11 14,4 27,5 38,-2 7,-4 12,-8 18,-7 -19,47 -86,69 -115,30 -2,0 -5,1 -9,1 -5,7 -10,14 -15,20 12,-3 26,-1 43,6 14,6 29,9 42,3 9,-4 15,-7 22,-6 -27,48 -99,65 -129,25 -15,18 -32,36 -49,53z"/>
   <polygon class="fil4" points="1204,370 1242,481 1365,482 1266,551 1304,663 1204,594 1104,663 1142,551 1043,482 1166,482 "/>
   <path class="fil5" d="M1204 98l548 375 547 375 -209 607 -209 607 -677 0 -677 0 -209 -607 -209 -607 547 -375 548 -375zm-666 1598c-48,11 -79,34 -93,71 60,-7 112,2 155,29 51,33 85,37 100,7 8,-16 -8,-40 -46,-72 -19,-17 -18,-36 4,-55l51 -43c-102,-45 -193,-55 -272,-30 45,25 78,56 101,93zm1333 0c47,11 78,34 93,71 -60,-7 -112,2 -155,29 -52,33 -85,37 -100,7 -8,-16 8,-40 45,-72 20,-17 19,-36 -3,-55l-51 -43c102,-45 192,-55 272,-30 -45,25 -79,56 -101,93zm-220 73l51 49c9,9 21,14 38,14 2,0 4,0 6,0 18,-1 41,-11 68,-28 20,-13 43,-22 67,-26 25,-5 53,-5 82,-2l7 1 -95 276 -671 0 -671 0 -95 -276 8 -1c29,-3 56,-3 81,2 25,4 48,13 68,26 27,17 50,27 68,28 2,0 4,0 6,0 16,0 29,-5 38,-14l51 -49c41,30 87,55 138,75 91,37 196,58 308,58 112,0 217,-21 309,-58 50,-20 97,-46 138,-75zm322 -2l-1 -3c-8,-20 -20,-36 -37,-49 -14,-11 -30,-19 -50,-24 9,-14 21,-27 34,-39 16,-15 35,-29 57,-41l18 -10 -19 -6c-41,-13 -85,-17 -132,-12 -46,5 -95,19 -147,42l-4 2 -88 -74c-3,-4 -22,-22 -48,0 -47,41 -102,73 -163,95 -58,21 -122,33 -189,33 -67,0 -130,-12 -189,-33 -60,-22 -115,-54 -162,-94 -26,-22 -45,-4 -49,0l-87 73 -4 -2c-52,-23 -101,-37 -148,-42 -46,-5 -90,-1 -131,12l-19 6 17 10c22,12 41,26 58,41 13,12 24,25 34,39 -20,5 -37,13 -50,24 -17,13 -29,29 -37,49l-2 4 -109 -316 -207 -601 542 -371 543 -372 543 372 542 371 -207 601 -109 315zm-234 -90c-111,130 -309,216 -535,216 -225,0 -423,-86 -534,-215l140 -118c0,0 15,-18 37,0 94,81 219,130 357,130 138,0 264,-50 358,-130 21,-19 36,0 36,0l141 117z"/>
   <path class="fil6" d="M1751 1676l-52 -43c102,-45 193,-55 273,-30 -45,25 -79,56 -101,93 47,11 78,34 92,71 -60,-7 -112,2 -154,29 -52,33 -85,37 -100,7 -9,-16 7,-40 45,-72 19,-17 19,-36 -3,-55zm-248 -435l-247 129 0 -4 245 -129 -3 -4 -293 154 -1 0 -1 0 -293 -154 -3 4 245 128 0 5 -247 -129 -12 22 261 145 3 2 -3 2 -155 88 26 29 178 -96 1 -1 1 1 178 96 26 -29 -155 -88 -3 -2 3 -2 261 -145 -12 -22zm-254 133l-29 15 -2 -4 31 -16 0 5zm-90 -6l31 17 -2 4 -29 -16 0 -5zm-639 95c-9,18 5,30 18,33 5,1 9,4 2,8 -9,8 -5,29 12,31 23,3 29,-15 22,-21 -6,-7 -3,-11 2,-7 8,7 23,7 27,-6 4,-14 -1,-20 -20,-22 -8,-1 -11,-12 -3,-11 16,4 23,2 24,-15 2,-19 -18,-23 -30,-18 -6,3 -10,6 -11,11 -1,6 -4,8 -11,5 -16,-7 -28,2 -32,12zm557 -865c-4,-16 -20,-16 -30,-11 -4,2 -8,2 -7,-4 2,-10 -13,-21 -25,-14 -16,10 -10,24 -2,25 7,1 8,5 2,5 -9,0 -19,8 -14,18 5,11 11,12 25,3 6,-3 14,2 8,5 -12,6 -16,11 -7,22 9,13 24,5 30,-4 2,-5 3,-9 1,-12 -3,-4 -2,-8 5,-9 14,-4 17,-15 14,-24zm-64 112c1,-16 -14,-21 -25,-20 -4,0 -8,-1 -5,-6 6,-8 -5,-24 -19,-21 -19,4 -18,19 -11,23 8,3 6,7 1,5 -8,-3 -20,1 -19,12 1,12 7,15 23,12 7,-2 12,6 5,7 -13,2 -18,5 -14,19 5,14 22,12 30,5 4,-4 6,-7 5,-11 -1,-5 1,-8 8,-7 14,1 21,-9 21,-18zm-112 -164c-20,-9 -32,4 -35,15 -1,5 -4,8 -9,2 -8,-9 -31,-7 -33,9 -2,20 16,27 23,21 7,-5 11,-2 7,2 -7,7 -7,21 7,25 15,5 21,1 23,-16 1,-8 13,-10 11,-2 -3,14 -1,20 17,23 20,2 24,-15 19,-27 -3,-6 -6,-9 -12,-10 -6,-2 -8,-5 -5,-11 7,-14 -2,-26 -13,-31zm-133 63c-19,-6 -28,8 -28,20 0,5 -3,8 -8,3 -9,-7 -28,-1 -28,15 1,20 19,24 24,17 5,-6 10,-4 7,1 -5,8 -3,21 10,23 14,2 18,-3 17,-20 0,-8 10,-12 10,-4 -1,14 2,21 18,20 18,-1 19,-19 13,-29 -4,-6 -7,-9 -12,-9 -6,0 -9,-3 -7,-10 5,-15 -5,-24 -16,-27zm143 147c-2,-16 -18,-17 -28,-14 -5,2 -9,1 -6,-4 3,-9 -11,-21 -24,-15 -17,8 -13,22 -5,23 7,2 7,6 2,5 -9,-1 -20,5 -17,15 4,11 10,12 25,6 6,-3 13,3 7,5 -13,5 -17,9 -10,20 8,13 24,7 30,-1 3,-4 5,-8 3,-11 -2,-4 -1,-7 6,-8 14,-2 19,-13 17,-21zm-263 -44c-19,1 -23,17 -19,28 1,5 0,9 -7,6 -10,-4 -26,9 -20,23 7,19 25,16 27,8 3,-8 8,-7 7,-1 -3,9 4,21 17,19 13,-3 16,-9 9,-25 -2,-8 6,-14 8,-7 4,13 9,18 24,12 16,-7 11,-24 1,-31 -5,-4 -9,-6 -14,-5 -5,2 -8,0 -9,-7 -1,-15 -13,-21 -24,-20zm161 133c-5,-17 -21,-17 -31,-11 -4,2 -8,2 -7,-4 2,-10 -13,-22 -25,-13 -16,11 -10,26 -2,27 8,0 9,4 3,5 -9,0 -19,9 -14,19 6,12 12,12 26,3 6,-4 14,1 8,5 -12,7 -15,12 -6,24 10,13 24,4 29,-6 2,-5 3,-10 1,-14 -3,-4 -2,-7 4,-9 14,-5 17,-17 14,-26zm-255 -1c-20,6 -20,24 -13,35 2,5 2,10 -5,8 -12,-2 -26,15 -16,29 13,19 30,12 31,3 0,-9 6,-10 6,-4 0,11 10,22 22,17 14,-6 14,-14 4,-30 -5,-7 2,-16 6,-9 8,14 14,18 27,8 16,-11 6,-29 -6,-34 -6,-3 -11,-4 -15,-1 -5,3 -9,1 -11,-6 -5,-16 -20,-19 -30,-16zm191 91c-10,-15 -25,-9 -32,-1 -3,3 -7,5 -8,-2 -1,-10 -19,-16 -28,-4 -11,15 -1,27 7,25 7,-2 9,2 4,4 -8,3 -15,15 -7,23 9,10 15,8 25,-5 4,-6 14,-3 9,2 -9,11 -11,17 1,25 14,9 25,-4 26,-15 1,-5 1,-10 -3,-13 -4,-3 -4,-7 1,-10 12,-9 11,-22 5,-29zm-260 56c-17,13 -9,31 1,39 5,4 7,8 -1,10 -12,2 -19,25 -4,35 20,12 34,-1 31,-11 -3,-9 2,-11 4,-5 4,10 19,17 28,7 11,-11 9,-19 -8,-30 -7,-5 -4,-17 3,-11 13,10 20,12 29,-4 10,-17 -6,-30 -19,-30 -7,-1 -12,0 -16,5 -3,5 -8,5 -13,-1 -11,-14 -26,-12 -35,-4zm203 50c-14,-10 -27,0 -31,10 -2,4 -5,7 -8,1 -4,-10 -24,-10 -28,5 -6,18 8,26 15,22 6,-4 9,-1 5,2 -7,6 -10,19 1,24 11,6 17,3 22,-13 2,-7 12,-7 9,-1 -5,13 -5,19 9,23 16,5 23,-11 20,-22 -1,-6 -3,-10 -7,-11 -5,-2 -6,-6 -2,-11 8,-12 3,-23 -5,-29zm-1 105c-15,-10 -28,0 -32,10 -2,4 -5,7 -9,1 -5,-9 -25,-9 -29,5 -6,18 8,26 15,22 7,-4 10,-1 6,2 -8,6 -10,19 0,24 12,6 18,3 24,-13 2,-7 12,-7 9,-1 -5,13 -5,19 10,23 17,5 24,-11 21,-22 -1,-6 -3,-10 -7,-11 -6,-2 -7,-5 -3,-11 9,-12 4,-23 -5,-29zm-231 6c-14,14 -5,30 6,36 4,3 6,7 -1,9 -11,4 -14,25 1,33 19,9 30,-5 27,-13 -4,-8 0,-11 3,-6 5,9 19,14 26,4 9,-12 6,-19 -10,-27 -8,-4 -6,-15 0,-11 13,8 20,9 27,-6 7,-17 -9,-27 -21,-26 -7,0 -11,1 -14,6 -2,5 -7,6 -12,1 -11,-12 -25,-8 -32,0zm218 97c-19,-4 -27,13 -26,25 1,6 -1,10 -7,5 -10,-7 -29,3 -26,20 3,21 21,22 26,15 4,-8 9,-6 6,-1 -4,9 0,24 13,24 14,1 18,-6 16,-24 -2,-8 8,-14 9,-6 1,16 4,22 21,19 18,-4 17,-23 9,-33 -5,-5 -8,-8 -14,-8 -5,1 -8,-2 -7,-9 2,-17 -9,-26 -20,-27zm-202 71c-12,17 0,32 13,37 5,2 8,6 1,10 -11,5 -10,29 7,34 23,6 32,-11 27,-19 -6,-8 -2,-11 2,-6 7,8 23,11 30,-2 6,-14 2,-20 -17,-26 -9,-3 -9,-15 -1,-12 15,6 23,6 27,-11 5,-20 -14,-27 -27,-24 -7,2 -12,4 -14,9 -2,6 -6,8 -13,3 -14,-10 -28,-3 -35,7zm257 64c-17,-3 -24,12 -23,23 0,5 -2,9 -7,5 -9,-7 -26,2 -23,17 3,19 19,20 23,14 4,-7 8,-6 6,-1 -4,8 0,22 11,22 13,0 17,-6 14,-22 -1,-8 8,-12 9,-5 1,14 4,19 18,16 17,-3 16,-20 8,-29 -3,-5 -7,-7 -11,-7 -6,1 -8,-2 -7,-8 2,-15 -8,-23 -18,-25zm-72 292l52 -43c-102,-45 -193,-55 -273,-30 45,25 79,56 101,93 -47,11 -78,34 -92,71 60,-7 112,2 154,29 52,33 85,37 100,7 9,-16 -7,-40 -45,-72 -19,-17 -19,-36 3,-55zm1081 1c-111,130 -309,216 -534,216 -225,0 -423,-86 -534,-215l140 -118c0,0 15,-18 37,0 93,81 219,130 357,130 138,0 263,-50 357,-130 22,-19 37,0 37,0l140 117z"/>
   <path class="fil7" d="M903 1172c119,-1 215,52 302,127l0 -300c-65,-44 -136,-73 -214,-77l-88 250z"/>
   <path class="fil8" d="M1507 1172c-120,-1 -216,52 -302,127l0 -300c64,-44 135,-73 213,-77l89 250z"/>
   <path class="fil9" d="M903 1172l5 55c117,10 203,52 259,125l75 0c56,-73 142,-115 259,-125l6 -55c-120,-1 -216,52 -302,127 -87,-75 -183,-128 -302,-127z"/>
   <path class="fil5" d="M1060 1001c-3,-3 -7,-1 -10,3 2,-1 3,-1 4,-1 2,-1 3,0 4,1 2,3 5,3 9,2 4,-1 5,1 6,3 1,4 6,4 12,3 4,-1 6,0 8,3 1,4 5,5 12,5 1,0 2,2 4,3 3,5 8,5 14,4 6,-1 9,2 12,6 3,4 8,5 16,2 -8,0 -14,-2 -16,-6 -3,-6 -6,-7 -13,-5 -5,2 -9,-1 -12,-6 -2,-4 -6,-5 -12,-4 -3,0 -4,-2 -5,-5 -1,-3 -6,-4 -13,-2 -3,0 -4,-1 -5,-3 -2,-3 -6,-3 -11,-1 -2,1 -2,0 -4,-2zm-23 74c-3,-3 -7,-1 -10,3 1,-1 3,-1 4,-2 2,0 3,0 4,2 2,3 5,3 9,2 5,-1 6,1 7,3 1,4 6,4 12,3 4,-1 7,0 8,3 2,5 6,6 13,6 1,0 3,1 4,3 3,5 9,5 15,4 6,-1 10,2 13,7 2,4 8,4 16,2 -8,-1 -14,-3 -16,-7 -3,-6 -7,-7 -14,-5 -6,2 -10,-1 -13,-7 -2,-4 -6,-5 -13,-4 -2,0 -3,-2 -4,-4 -2,-4 -7,-5 -14,-3 -3,0 -4,-1 -6,-3 -2,-4 -6,-3 -11,-1 -1,1 -2,-1 -4,-2zm-15 35c-4,-3 -9,-1 -12,4 2,-1 3,-2 5,-2 2,0 3,0 5,2 2,3 6,2 10,1 5,-1 6,1 7,3 2,4 8,5 15,3 4,-1 7,0 9,3 2,4 7,6 14,5 2,0 4,2 5,3 4,5 10,6 18,4 6,-1 11,1 14,6 3,5 10,5 19,2 -9,-1 -16,-2 -19,-7 -3,-5 -8,-7 -16,-4 -6,2 -11,-1 -14,-7 -3,-4 -8,-5 -15,-4 -3,1 -4,-2 -5,-4 -2,-4 -8,-4 -16,-2 -4,0 -5,-1 -7,-3 -3,-4 -7,-3 -12,-1 -2,2 -3,0 -5,-2zm28 -73c-3,-3 -7,-1 -10,2 2,0 3,-1 4,-1 2,0 3,0 4,2 2,3 5,2 9,1 4,-1 5,1 6,4 2,3 7,4 12,2 4,0 7,1 8,4 1,4 5,5 12,5 1,0 3,1 4,3 3,4 8,5 15,4 5,-1 8,1 11,6 3,4 8,4 16,2 -8,-1 -14,-3 -16,-6 -2,-6 -6,-7 -13,-5 -5,1 -9,-1 -12,-7 -2,-4 -6,-4 -12,-4 -3,0 -3,-2 -4,-4 -2,-3 -7,-4 -14,-3 -3,1 -4,0 -5,-2 -2,-4 -6,-3 -11,-1 -1,1 -2,-1 -4,-2z"/>
   <path class="fil5" d="M1349 1001c3,-3 7,-1 10,3 -2,-1 -3,-1 -4,-1 -2,-1 -3,0 -4,1 -2,3 -5,3 -9,2 -4,-1 -5,1 -6,3 -1,4 -6,4 -12,3 -4,-1 -6,0 -7,3 -2,4 -6,5 -12,5 -2,0 -3,2 -4,3 -4,5 -9,5 -15,4 -6,-1 -9,2 -12,6 -2,4 -8,5 -15,2 7,0 13,-2 15,-6 3,-6 6,-7 13,-5 6,2 9,-1 12,-6 2,-4 6,-5 13,-4 2,0 3,-2 4,-5 1,-3 6,-4 13,-2 3,0 4,-1 6,-3 2,-3 5,-3 10,-1 2,1 2,0 4,-2zm23 74c3,-3 8,-1 10,3 -1,-1 -2,-1 -4,-2 -2,0 -3,0 -4,2 -2,3 -5,3 -9,2 -5,-1 -6,1 -6,3 -2,4 -7,4 -13,3 -4,-1 -7,0 -8,3 -2,5 -6,6 -13,6 -1,0 -2,1 -4,3 -3,5 -8,5 -15,4 -6,-1 -9,2 -12,7 -3,4 -9,4 -17,2 8,-1 14,-3 16,-7 3,-6 7,-7 14,-5 6,2 10,-1 13,-7 2,-4 6,-5 13,-4 2,0 3,-2 4,-4 2,-4 7,-5 14,-3 3,0 5,-1 6,-3 2,-4 6,-3 11,-1 2,1 2,-1 4,-2zm15 35c4,-3 9,-1 12,4 -2,-1 -3,-2 -5,-2 -2,0 -3,0 -5,2 -2,3 -6,2 -10,1 -5,-1 -6,1 -7,3 -2,4 -8,5 -15,3 -4,-1 -7,0 -9,3 -2,4 -7,6 -14,5 -2,0 -4,2 -5,3 -4,5 -10,6 -18,4 -6,-1 -11,1 -14,6 -3,5 -10,5 -19,2 9,-1 16,-2 19,-7 3,-5 8,-7 16,-4 6,2 11,-1 14,-7 3,-4 8,-5 15,-4 3,1 4,-2 5,-4 2,-4 8,-4 16,-2 4,0 6,-1 7,-3 3,-4 7,-3 12,-1 2,2 3,0 5,-2zm-28 -73c3,-3 7,-1 10,2 -2,0 -3,-1 -4,-1 -2,0 -3,0 -4,2 -2,3 -5,2 -9,1 -4,-1 -5,1 -6,4 -2,3 -7,4 -12,2 -4,0 -6,1 -8,4 -1,4 -5,5 -12,5 -1,0 -2,1 -4,3 -3,4 -8,5 -14,4 -6,-1 -9,1 -12,6 -3,4 -8,4 -16,2 8,-1 14,-3 16,-6 2,-6 6,-7 13,-5 5,1 9,-1 12,-7 2,-4 6,-4 12,-4 3,0 4,-2 4,-4 2,-3 7,-4 14,-3 3,1 4,0 5,-2 2,-4 6,-3 11,-1 1,1 2,-1 4,-2z"/>
   <path class="fil10" d="M996 1143c32,3 61,9 88,19 26,10 51,23 74,39l10 -177c-18,-12 -37,-23 -57,-32 -20,-9 -40,-16 -63,-18l0 0 -1 0 0 0c-6,-1 -13,-2 -15,5l-43 137 0 0c-2,4 -2,7 -3,11 0,4 0,7 1,10 2,3 3,4 6,5 1,1 2,1 3,1zm87 23c-27,-10 -56,-17 -87,-20 -2,0 -3,0 -4,0 -4,-2 -6,-4 -8,-8 -1,-3 -2,-7 -1,-11 0,-4 1,-8 2,-12l0 0 43 -137c3,-10 12,-8 19,-8l2 0c22,3 44,10 64,19 20,9 39,20 58,33l0 0 0 1 -10 182 0 3 -2 -2c-24,-17 -49,-30 -76,-40z"/>
   <path class="fil10" d="M1413 1143c-32,3 -61,9 -88,19 -26,10 -50,23 -74,39l-10 -177c19,-12 37,-23 57,-32 20,-9 41,-16 63,-18l0 0 1 0 0 0c6,-1 13,-2 15,5l44 137 0 0c1,4 2,7 2,11 0,4 0,7 -1,10 -1,3 -3,4 -6,5 -1,1 -2,1 -3,1zm-87 23c27,-10 56,-17 87,-20 2,0 3,0 4,0 4,-2 6,-4 8,-8 1,-3 2,-7 1,-11 0,-4 -1,-8 -2,-12l0 0 -43 -137c-3,-10 -12,-8 -19,-8l-1 0c-23,3 -44,10 -65,19 -20,9 -39,20 -57,33l-1 0 0 1 10 182 0 3 3 -2c24,-17 49,-30 75,-40z"/>
   <path class="fil5" d="M752 1699l-23 -17 64 -85 24 17 -65 85zm155 -522l5 46c57,5 108,18 150,39 44,21 79,50 108,86l70 0c28,-36 64,-65 107,-86 43,-21 93,-34 150,-39l5 -46c-57,0 -109,13 -157,34 -49,23 -95,54 -138,92l-2 2 -3 -2c-43,-38 -89,-69 -138,-92 -48,-21 -99,-34 -157,-34zm122 167l-140 -78 -2 -1 1 -2 19 -34 1 -2 -5 -55 88 -250c78,4 149,33 214,77 64,-44 135,-73 213,-77l89 250 -6 55 -1 1 1 1 19 34 1 2 -2 1 -140 78 37 155 -2 2 -29 32 -1 1 -2 -1 -178 -96 -178 96 -2 1 -1 -1 -29 -32 -2 -2 37 -155zm171 -343l-1 -1c-31,-21 -64,-38 -98,-50 -34,-13 -70,-21 -107,-23l-85 241 -2 4c117,1 211,52 295,125l0 -294 -2 -2zm302 171l-2 -4 -85 -241c-37,2 -73,10 -107,23 -34,12 -67,29 -98,50l-1 1 -2 2 0 294c85,-73 179,-124 295,-125zm1 69l-247 129 0 -4 245 -129 -3 -4 -293 154 -1 0 -1 0 -293 -154 -3 4 245 128 0 5 -247 -129 -12 22 261 145 3 2 -3 2 -155 88 26 29 178 -96 1 -1 1 1 178 96 26 -29 -155 -88 -3 -2 3 -2 261 -145 -12 -22zm-254 133l-29 15 -2 -4 31 -16 0 5zm-90 -6l31 17 -2 4 -29 -16 0 -5zm-339 377l-27 -18 12 -39 -21 34 -25 -16 57 -90 24 15 -18 30 29 -23 23 14 -41 32 -13 61zm72 36l-26 -13 23 -46 -8 -3 -22 46 -26 -13 47 -96 26 13 -19 38 7 4 19 -39 26 13 -47 96zm67 26l-51 -19 38 -100 27 10 -33 87 24 9 -5 13zm84 23l-28 -7 2 -29 -13 -3 -11 27 -29 -7 46 -99 36 9 -3 109zm-25 -51l3 -32 -11 30 8 2zm38 10l26 4 -3 24c0,3 1,4 5,5 3,0 5,-1 6,-3l1 -13c1,-4 -2,-9 -7,-15 -11,-11 -18,-18 -21,-22 -2,-4 -3,-8 -3,-12l2 -11c2,-14 14,-19 36,-16 20,2 30,10 28,22l-3 19 -26 -4 3 -19c0,-2 -1,-4 -4,-4 -4,0 -6,1 -6,5l-1 7c0,4 2,9 8,15 11,11 18,19 21,23 2,4 3,8 3,13l-2 14c-2,14 -14,19 -37,16 -21,-3 -31,-11 -29,-24l3 -24zm100 54l4 -106 34 1c8,0 15,2 21,5 6,3 9,8 9,15l-1 15c0,7 -6,12 -17,15 12,3 18,8 17,16l0 20c-1,8 -4,13 -10,16 -5,3 -12,5 -20,5l-37 -2zm40 -68l0 -18c0,-4 -2,-5 -8,-6l-1 30c6,0 9,-2 9,-6zm-2 50l1 -27c0,-4 -3,-5 -8,-6l-1 39c5,0 8,-2 8,-6zm94 13l-57 5 -9 -106 57 -5 1 14 -27 2 2 29 25 -2 1 13 -25 2 3 37 28 -2 1 13zm86 -16l-29 6c-3,-3 -7,-11 -9,-25l0 0 -2 -6c-1,-9 -2,-13 -2,-13 -1,-4 -4,-5 -10,-4l10 50 -28 6 -22 -104 35 -8c8,-1 16,-1 22,0 7,2 11,6 12,13l3 12c1,8 -3,15 -15,20 13,0 20,5 22,14l2 11c3,17 7,26 11,28zm-47 -62l-4 -17c0,-4 -4,-5 -10,-4l6 28c6,-1 9,-3 8,-7zm129 36l-28 9 -13 -26 -12 4 4 28 -28 9 -11 -108 36 -11 52 95zm-47 -31l-14 -29 6 32 8 -3zm146 -16l-23 11 -27 -54 13 61 -18 9 -42 -47 26 54 -20 10 -47 -96 34 -16 36 44 -14 -55 35 -17 47 96zm75 -48l-25 15 -19 -21 -11 6 11 27 -25 16 -38 -103 32 -19 75 79zm-54 -18l-20 -25 13 30 7 -5zm102 -22l-43 34 -65 -84 23 -18 57 73 20 -15 8 10z"/>
  </g>
 </g>
</svg>
