<?xml version="1.0" standalone="no"?>
<!DOCTYPE svg PUBLIC "-//W3C//DTD SVG 20010904//EN"
 "http://www.w3.org/TR/2001/REC-SVG-20010904/DTD/svg10.dtd">
<svg version="1.0" xmlns="http://www.w3.org/2000/svg"
 width="700.000000pt" height="700.000000pt" viewBox="0 0 700.000000 700.000000"
 preserveAspectRatio="xMidYMid meet">

<g transform="translate(0.000000,700.000000) scale(0.100000,-0.100000)"
fill="#000000" stroke="none">
<path d="M3367 6537 c-42 -34 -114 -90 -160 -125 -177 -135 -274 -208 -314
-237 -23 -16 -149 -111 -279 -210 -130 -99 -258 -196 -285 -215 -101 -74 -224
-167 -278 -210 -32 -25 -69 -53 -82 -62 -13 -10 -55 -40 -92 -68 -37 -27 -70
-50 -73 -50 -3 0 -38 -24 -77 -54 -40 -29 -90 -65 -112 -80 -68 -44 -234 -162
-253 -180 -10 -9 -22 -16 -26 -16 -4 0 -36 -21 -72 -47 -35 -27 -109 -79 -164
-118 -56 -38 -130 -91 -166 -117 -36 -27 -67 -48 -70 -48 -3 0 -31 -19 -62
-43 -32 -23 -82 -59 -112 -80 -30 -20 -91 -62 -135 -94 -44 -31 -116 -81 -160
-111 -124 -85 -116 -73 -89 -140 13 -31 24 -63 24 -70 0 -8 6 -28 14 -45 8
-18 42 -115 76 -217 34 -102 68 -199 76 -217 8 -17 14 -36 14 -43 0 -7 6 -26
14 -43 8 -18 22 -59 32 -92 9 -33 20 -64 24 -70 3 -5 15 -37 25 -70 10 -33 21
-64 25 -70 4 -5 13 -32 20 -60 7 -27 16 -54 20 -60 5 -5 16 -39 25 -75 10 -36
21 -69 26 -75 4 -5 15 -37 24 -70 10 -33 21 -64 24 -70 4 -5 13 -30 20 -55 6
-25 16 -54 21 -65 5 -11 28 -76 50 -145 23 -69 46 -134 51 -145 9 -20 17 -46
58 -195 12 -41 25 -82 30 -90 4 -8 16 -46 25 -84 10 -38 22 -76 27 -85 4 -9
15 -41 23 -71 24 -92 58 -203 71 -235 7 -16 18 -56 25 -87 6 -32 15 -60 20
-63 4 -3 11 -24 15 -48 4 -23 12 -53 18 -67 5 -14 11 -29 13 -35 22 -69 50
-164 65 -220 11 -38 23 -77 28 -85 4 -8 14 -40 21 -70 7 -30 16 -60 21 -65 4
-6 15 -42 25 -80 9 -39 20 -74 24 -80 4 -5 15 -44 25 -85 10 -41 21 -79 25
-85 5 -5 13 -29 19 -52 l12 -43 124 0 c69 0 144 4 167 10 82 18 1678 26 2538
12 443 -7 871 -15 951 -18 l146 -5 7 43 c4 23 11 47 16 53 4 5 16 39 24 75 9
36 21 74 26 85 5 11 25 79 46 150 20 72 42 144 49 160 7 17 18 55 25 85 7 30
16 60 20 65 4 6 13 35 21 65 7 30 16 60 19 65 4 6 15 42 24 80 10 39 22 77 26
87 5 9 16 45 25 80 9 34 20 72 25 83 13 29 66 204 75 245 4 19 11 40 15 45 4
6 15 44 25 85 11 41 22 80 26 85 4 6 15 37 24 70 20 74 21 76 28 95 3 8 11 35
17 60 7 25 16 50 20 55 5 6 16 39 25 75 9 36 20 70 24 75 4 6 16 37 26 70 10
33 21 65 25 70 4 6 13 33 20 60 7 28 16 55 20 60 5 6 16 39 25 75 10 36 21 70
26 75 4 6 15 37 24 70 10 33 21 65 25 70 5 6 14 33 21 60 6 28 15 55 19 60 4
6 16 39 25 75 10 36 21 70 25 75 4 6 13 28 19 50 7 22 16 49 21 60 5 11 27 76
50 145 23 69 45 134 50 145 5 11 17 46 25 78 9 32 23 70 31 85 8 15 14 34 14
42 0 8 7 28 15 44 8 16 22 54 30 86 8 32 21 70 30 86 18 35 14 40 -74 99 -36
25 -84 58 -106 75 -22 16 -47 33 -55 37 -8 3 -40 25 -70 48 -30 22 -104 75
-163 116 -60 40 -138 95 -173 122 -36 26 -67 47 -70 47 -3 0 -31 19 -62 43
-31 24 -106 77 -165 118 -59 40 -136 94 -171 119 -35 25 -74 52 -86 60 -13 8
-51 36 -84 61 -34 25 -72 51 -85 58 -13 7 -49 33 -81 57 -32 24 -61 44 -64 44
-5 0 -91 64 -308 229 -26 20 -92 70 -147 111 -266 199 -432 324 -544 411 -39
31 -91 69 -113 85 -23 16 -112 83 -199 149 -86 66 -165 125 -174 130 -9 6 -23
16 -31 22 -66 56 -131 103 -142 102 -7 0 -48 -28 -91 -62z m416 -220 c1275
-963 1265 -956 2425 -1765 319 -222 382 -270 378 -287 -2 -11 -39 -119 -81
-240 -75 -216 -158 -457 -215 -625 -16 -47 -64 -184 -105 -305 -187 -538 -228
-662 -307 -920 -16 -55 -47 -156 -68 -225 -21 -69 -53 -172 -70 -230 -17 -58
-37 -123 -45 -145 -7 -22 -25 -80 -40 -130 -15 -49 -37 -124 -50 -165 -35
-113 -88 -287 -140 -460 -69 -229 -67 -225 -96 -224 -90 5 -1659 28 -1894 29
-300 0 -1142 -12 -1650 -24 -159 -4 -293 -5 -297 -2 -4 4 -32 89 -63 191 -31
102 -69 226 -85 275 -15 50 -42 135 -59 190 -298 975 -378 1235 -424 1370 -76
223 -279 812 -337 980 -27 77 -83 241 -125 365 -42 124 -83 240 -91 258 -8 18
-14 38 -14 45 0 12 70 66 175 139 98 67 307 213 628 439 15 11 105 75 200 141
95 67 252 178 350 247 98 69 188 133 200 141 25 16 663 497 1150 865 282 212
415 311 425 314 2 1 148 -108 325 -242z"/>
<path d="M3435 6361 c-11 -10 -231 -177 -490 -371 -258 -195 -569 -429 -690
-520 -121 -91 -357 -263 -525 -380 -168 -118 -494 -347 -726 -510 -232 -162
-435 -306 -453 -320 l-32 -25 86 -250 c47 -137 118 -342 157 -455 38 -113 78
-230 88 -260 10 -30 57 -165 103 -300 127 -370 173 -505 206 -615 46 -155 132
-437 216 -710 19 -60 62 -200 95 -310 34 -110 77 -252 97 -315 19 -63 42 -140
51 -170 8 -30 21 -61 28 -69 11 -12 9 -21 -7 -53 -11 -22 -19 -49 -17 -61 l3
-22 385 4 c598 6 1323 19 1453 26 83 5 117 4 117 -4 0 -8 113 -11 400 -11 220
1 404 -1 408 -3 4 -3 215 -6 470 -8 l463 -4 25 24 c13 13 24 29 24 37 0 8 5
14 11 14 6 0 9 7 6 15 -4 8 -2 17 2 20 5 2 12 24 15 48 4 23 13 55 21 71 8 15
13 32 10 36 -3 5 -1 11 4 14 5 3 12 23 16 43 4 21 11 44 17 51 6 6 7 12 3 12
-4 0 -3 6 2 13 6 6 16 40 23 74 7 35 17 63 22 63 6 0 8 6 5 14 -3 7 -1 18 5
24 5 5 11 20 12 33 6 40 18 83 28 96 6 7 8 19 5 28 -4 8 -2 17 2 19 5 3 14 27
21 53 7 27 16 53 20 58 4 6 11 27 14 49 4 21 12 50 19 65 6 14 11 31 12 36 0
6 4 16 9 23 4 7 9 23 11 35 5 38 17 82 28 94 5 7 6 13 2 13 -4 0 -3 6 2 13 6
6 14 30 18 52 3 22 13 54 22 72 8 18 12 36 9 42 -4 5 -2 12 3 15 5 3 12 21 15
40 4 19 10 36 14 38 4 2 15 37 26 78 10 41 23 80 28 87 5 7 7 17 4 22 -4 5 -2
12 3 15 5 3 12 26 15 51 4 25 11 45 15 45 4 0 8 6 8 13 1 11 64 205 83 252 4
11 7 22 7 25 0 3 6 16 13 30 8 14 15 30 16 35 3 21 96 301 109 330 16 37 27
66 31 82 2 12 80 244 91 273 4 8 5 19 4 23 -1 5 5 20 13 35 8 15 20 48 26 75
7 26 16 47 20 47 4 0 7 6 7 13 0 6 12 44 26 82 14 39 41 120 61 180 36 110 87
255 101 288 13 31 -14 50 -62 43 -37 -5 -43 -3 -43 12 0 12 -74 70 -222 173
-300 209 -1148 804 -1225 860 -34 24 -343 255 -685 514 -789 595 -802 605
-808 605 -3 0 -14 -8 -25 -19z m33 -197 c18 -63 16 -70 -40 -110 -29 -21 -55
-41 -58 -44 -13 -16 -493 -370 -501 -370 -11 0 -236 -171 -299 -227 -25 -23
-132 -106 -238 -185 -194 -144 -271 -200 -505 -364 -70 -49 -185 -130 -255
-179 -70 -50 -165 -117 -212 -150 -47 -32 -161 -112 -255 -178 -93 -66 -208
-147 -255 -180 l-84 -60 -44 24 c-46 24 -65 50 -43 57 17 6 141 90 159 109 8
7 28 21 44 29 37 19 312 216 316 226 2 5 8 8 12 8 11 0 214 141 218 152 2 4
10 8 17 8 7 0 15 4 17 8 2 4 23 21 48 38 88 59 255 178 266 189 6 6 37 26 68
45 31 19 56 38 56 42 0 4 5 8 10 8 6 0 16 4 23 10 7 5 41 31 77 57 57 41 157
114 185 136 20 15 201 149 230 170 16 12 52 43 80 68 68 62 183 149 198 149 7
0 24 11 39 25 15 14 30 25 33 25 4 0 12 6 19 13 7 6 26 22 42 34 16 12 130 97
254 190 124 92 227 171 228 175 2 4 9 8 15 8 7 1 34 23 62 50 27 27 52 46 56
42 3 -4 11 -26 17 -48z m71 -734 l48 -135 54 -7 c30 -3 111 -6 182 -7 70 -1
127 -5 127 -9 0 -4 -61 -55 -136 -112 -75 -57 -138 -108 -140 -114 -2 -6 18
-85 46 -176 27 -90 47 -166 45 -168 -3 -3 -37 18 -77 45 -40 28 -107 74 -149
103 l-77 52 -68 -49 c-123 -88 -226 -155 -230 -151 -3 4 57 221 92 330 3 12
-34 46 -142 130 l-147 113 159 6 c87 4 171 7 185 8 15 0 30 9 34 19 4 9 29 80
56 157 27 77 52 147 55 155 8 19 21 -10 83 -190z m-1087 -287 c10 -9 18 -20
18 -26 0 -5 14 -25 30 -44 43 -48 40 -72 -7 -75 -101 -5 -203 19 -203 48 0 21
101 113 124 114 11 0 28 -7 38 -17z m1750 -30 c43 -44 58 -79 58 -133 0 -48
-11 -56 -37 -27 -29 32 -42 60 -53 114 -5 27 -12 56 -15 66 -11 28 8 20 47
-20z m154 -25 c17 -26 34 -63 38 -82 7 -38 -9 -116 -24 -116 -21 0 -58 106
-63 178 -5 85 3 88 49 20z m-1531 13 c22 -5 48 -12 58 -16 25 -10 31 -48 14
-81 -8 -16 -20 -48 -26 -70 -16 -61 -32 -70 -63 -36 -45 48 -76 100 -88 153
-14 58 -4 74 40 64 14 -3 43 -10 65 -14z m1648 -83 c16 -25 31 -64 34 -86 6
-42 -12 -112 -28 -112 -21 0 -47 86 -51 168 -5 95 2 99 45 30z m-393 -13 c25
-7 57 -18 70 -25 30 -15 80 -60 80 -72 0 -14 -99 -9 -129 6 -31 17 -101 90
-101 107 0 7 7 8 18 4 9 -4 37 -13 62 -20z m521 -100 c10 -22 19 -56 19 -76 0
-39 -18 -99 -29 -99 -20 0 -50 100 -54 178 l-4 82 25 -22 c14 -13 33 -41 43
-63z m-431 -24 l55 -6 -35 -23 c-30 -20 -45 -22 -100 -19 -36 2 -78 10 -95 17
l-30 13 55 18 c30 9 64 15 75 12 11 -3 45 -8 75 -12z m-1983 -28 c15 -21 40
-53 56 -72 25 -30 27 -35 14 -48 -37 -37 -247 -7 -247 35 0 22 107 122 130
122 10 0 31 -17 47 -37z m2522 -9 c37 -56 47 -115 29 -168 -17 -52 -30 -54
-51 -11 -12 26 -17 62 -17 130 0 52 2 95 4 95 2 0 18 -21 35 -46z m-1983 -60
c71 -62 78 -84 38 -117 -15 -12 -46 -42 -70 -65 -24 -24 -50 -42 -56 -40 -34
12 -48 203 -18 257 17 32 37 26 106 -35z m1589 47 c9 -16 -54 -53 -99 -58 -47
-6 -130 13 -121 27 4 6 18 10 33 10 15 1 38 7 52 15 28 16 126 20 135 6z m502
-81 c28 -53 30 -130 4 -178 -20 -39 -32 -31 -50 32 -12 47 -3 198 13 193 5 -2
20 -23 33 -47z m-398 24 c17 -4 31 -10 31 -15 0 -14 -61 -51 -98 -60 -40 -9
-119 5 -148 25 -15 12 -10 15 47 34 68 21 117 26 168 16z m157 -97 c11 -10
-17 -39 -53 -54 -46 -19 -111 -16 -163 8 l-45 21 60 18 c59 18 186 23 201 7z
m373 -88 c12 -57 7 -89 -22 -137 -23 -39 -32 -34 -46 28 -8 35 -7 62 6 124 17
77 17 78 34 57 10 -12 22 -44 28 -72z m-2511 2 c15 -10 37 -21 48 -25 12 -4
29 -15 39 -26 15 -17 16 -24 5 -50 -7 -16 -16 -30 -20 -30 -5 0 -22 -22 -39
-50 -17 -27 -37 -50 -45 -50 -17 0 -54 92 -63 156 -12 88 17 117 75 75z m2233
-8 c17 -17 -33 -45 -92 -51 -39 -4 -62 1 -100 18 -27 13 -49 27 -49 31 0 19
222 21 241 2z m371 -116 c5 -23 4 -53 -2 -76 -11 -43 -47 -94 -60 -86 -15 9
-23 96 -12 133 6 21 16 57 22 82 l12 45 16 -30 c8 -17 19 -47 24 -68z m-3121
51 c21 -18 50 -42 65 -54 17 -13 25 -26 21 -36 -9 -24 -93 -48 -168 -48 -88 0
-98 12 -61 71 16 24 36 56 45 72 23 36 51 34 98 -5z m2802 -14 c26 -9 47 -20
47 -25 0 -15 -65 -39 -103 -39 -34 0 -137 45 -137 60 0 5 24 11 53 13 28 2 61
4 73 5 11 1 41 -5 67 -14z m107 -109 c39 -20 38 -31 -6 -45 -52 -18 -117 -7
-167 26 l-42 29 50 6 c67 9 129 3 165 -16z m307 -67 c4 -52 1 -72 -15 -104
-21 -42 -49 -71 -58 -62 -14 15 -15 82 -1 125 46 141 65 152 74 41z m-2887
-21 c31 -15 36 -39 17 -86 -8 -20 -19 -49 -23 -66 -15 -47 -42 -38 -87 28 -27
40 -41 73 -45 104 l-5 46 59 -8 c32 -3 70 -12 84 -18z m2638 -22 c28 -13 52
-28 52 -34 0 -12 -54 -24 -97 -23 -38 2 -100 31 -127 61 l-19 21 69 0 c52 0
82 -6 122 -25z m328 -99 c8 -57 -14 -121 -56 -161 l-29 -28 -7 27 c-10 40 1
89 37 167 36 77 44 76 55 -5z m-295 3 c37 -9 89 -44 89 -59 0 -18 -86 -22
-126 -5 -36 15 -104 71 -104 85 0 7 78 -5 141 -21z m-3221 -24 c14 -8 37 -14
51 -15 14 0 34 -7 45 -15 18 -15 17 -17 -28 -59 -51 -47 -101 -75 -152 -83
-28 -4 -35 -2 -40 15 -4 10 -2 31 4 46 5 15 10 41 10 57 0 48 16 69 53 69 18
-1 43 -7 57 -15z m3580 -172 c-9 -41 -22 -65 -51 -94 -21 -21 -43 -39 -49 -39
-13 0 -11 58 3 95 7 17 30 56 52 89 l39 58 9 -27 c6 -18 5 -47 -3 -82z m-355
83 c63 -16 92 -31 127 -64 33 -30 28 -42 -18 -42 -63 0 -124 34 -166 93 -23
32 -17 33 57 13z m-1805 -48 c93 -25 197 -77 273 -135 l57 -44 0 -376 0 -375
-22 14 c-250 162 -439 250 -631 293 -48 11 -77 22 -74 29 2 6 52 149 112 319
l109 307 51 -6 c27 -3 84 -15 125 -26z m868 5 c90 -255 212 -602 212 -606 0
-3 -35 -13 -77 -22 -164 -36 -333 -110 -530 -231 -58 -35 -109 -64 -114 -64
-5 0 -9 162 -9 369 l0 369 62 47 c104 78 211 125 343 150 99 19 102 18 113
-12z m-1873 -12 c23 -4 46 -11 53 -15 16 -10 15 -45 -3 -76 -8 -14 -14 -37
-15 -51 0 -14 -7 -34 -15 -45 -15 -18 -16 -18 -51 21 -41 46 -68 96 -77 141
-8 40 0 47 38 39 16 -4 48 -10 70 -14z m2810 -41 c3 -5 31 -17 62 -27 39 -12
70 -31 102 -63 l46 -45 -48 -3 c-65 -4 -113 22 -154 82 -18 27 -33 52 -33 57
0 12 17 11 25 -1z m401 -113 c-9 -67 -38 -121 -79 -146 -19 -12 -39 -21 -45
-21 -14 0 4 77 26 111 44 68 86 118 95 112 5 -3 6 -27 3 -56z m-309 -52 c66
-32 143 -100 143 -126 0 -25 -105 6 -150 43 -31 26 -84 118 -68 118 3 0 36
-16 75 -35z m-3345 -41 c78 -11 80 -26 15 -89 -59 -55 -136 -92 -155 -73 -11
11 -4 135 10 161 8 15 17 18 46 13 21 -3 58 -9 84 -12z m3689 -91 c-14 -52
-64 -109 -107 -123 -19 -7 -38 -10 -41 -7 -13 14 42 103 94 152 63 59 74 55
54 -22z m-3281 -18 c9 -121 5 -125 -78 -70 -56 38 -108 105 -99 129 6 15 58
24 132 22 l40 -1 5 -80z m2928 32 c20 -12 50 -29 66 -37 27 -14 95 -94 96
-112 0 -13 -38 -9 -78 8 -61 25 -106 76 -126 142 -9 28 -5 28 42 -1z m21 -128
c14 -11 42 -30 61 -42 33 -21 88 -102 77 -113 -12 -12 -91 20 -123 49 -40 37
-87 144 -58 133 9 -3 28 -15 43 -27z m361 -31 c-10 -28 -31 -64 -46 -79 -25
-26 -112 -65 -122 -54 -10 9 20 63 51 92 39 36 118 93 129 93 4 0 -1 -23 -12
-52z m-244 -235 c10 -24 14 -47 10 -50 -13 -13 -98 41 -122 77 -15 22 -27 59
-31 91 l-5 54 66 -65 c41 -40 72 -81 82 -107z m-3082 135 c9 -12 16 -33 16
-46 0 -12 7 -39 15 -59 21 -50 11 -77 -23 -68 -81 20 -199 98 -190 127 5 13
12 17 83 46 66 26 81 26 99 0z m3356 -33 c0 -16 -51 -103 -72 -122 -27 -25
-69 -43 -104 -43 -30 0 -30 7 -1 48 27 40 177 138 177 117z m-2560 -37 c92
-25 214 -74 315 -128 100 -54 249 -146 264 -164 7 -9 11 -39 9 -79 l-3 -65
-105 65 c-223 137 -414 217 -592 247 l-38 7 0 68 c0 37 3 70 6 74 8 8 48 1
144 -25z m1350 -42 l0 -74 -77 -17 c-193 -43 -372 -121 -567 -249 -47 -30 -87
-52 -90 -49 -3 4 -6 35 -6 70 l0 64 101 65 c205 133 402 219 594 258 45 9 45
9 45 -68z m-2514 29 c9 -23 -46 -113 -95 -156 -54 -48 -61 -43 -84 51 -22 89
-10 108 70 113 32 2 68 4 81 5 12 1 25 -5 28 -13z m3425 -179 c23 -43 32 -86
19 -86 -35 0 -129 82 -131 113 0 7 -4 33 -8 59 -4 27 -6 50 -3 52 7 7 105
-102 123 -138z m-781 44 c11 -21 20 -43 20 -47 0 -4 -28 -24 -63 -45 -63 -37
-512 -295 -644 -372 -40 -22 -73 -45 -73 -51 0 -10 30 -28 257 -157 68 -39
125 -73 127 -77 3 -4 -7 -26 -20 -50 l-26 -42 -41 24 c-23 13 -118 67 -211
121 -93 54 -179 102 -191 108 -19 8 -52 -8 -238 -116 -118 -69 -220 -127 -226
-128 -6 -2 -22 16 -36 38 -19 32 -22 44 -12 51 6 5 93 56 192 113 99 57 182
105 184 107 11 8 -45 43 -389 241 -201 116 -372 215 -380 220 -13 8 -12 14 5
47 11 20 25 39 32 42 6 2 69 -29 140 -70 70 -41 205 -119 298 -172 94 -54 223
-129 287 -167 64 -37 121 -68 126 -68 5 0 200 110 433 245 232 135 424 245
426 245 1 0 12 -18 23 -40z m1065 -12 c-10 -33 -57 -90 -91 -110 -37 -22 -114
-35 -114 -20 0 25 68 87 130 117 80 40 83 40 75 13z m-370 -99 c52 -68 75
-115 75 -154 0 -32 -8 -32 -57 4 -48 34 -73 91 -73 161 0 28 2 50 3 50 2 0 25
-28 52 -61z m-2914 -1 c12 -24 30 -55 40 -70 35 -49 27 -58 -49 -58 -55 0 -79
5 -123 28 -30 15 -54 33 -54 41 0 21 107 99 137 100 23 1 31 -7 49 -41z m3255
-77 c-36 -69 -114 -121 -183 -121 -69 0 0 76 112 124 44 18 81 32 83 31 2 -2
-4 -17 -12 -34z m-366 -74 c40 -54 77 -148 64 -168 -9 -15 -80 40 -102 80 -16
28 -22 56 -22 102 0 35 4 59 8 54 4 -6 28 -36 52 -68z m-3256 5 c10 -17 -26
-138 -52 -177 -42 -61 -54 -57 -98 29 -43 87 -41 95 37 121 27 9 51 21 54 26
8 11 52 12 59 1z m3187 -74 c7 -18 24 -47 37 -65 17 -22 26 -51 29 -93 6 -62
4 -67 -27 -50 -51 27 -84 113 -73 193 7 55 16 59 34 15z m419 15 c0 -18 -82
-102 -114 -117 -35 -16 -136 -22 -136 -8 0 4 15 23 34 41 42 40 216 108 216
84z m-466 -135 c3 -14 18 -41 33 -58 19 -24 28 -46 31 -86 5 -61 -9 -71 -45
-31 -49 53 -64 121 -46 208 5 28 8 30 14 14 4 -11 10 -32 13 -47z m-2659 15
c8 -10 33 -39 55 -64 22 -25 40 -53 40 -61 0 -44 -240 -32 -247 12 -4 19 100
130 121 130 9 0 23 -8 31 -17z m3051 -67 c-14 -19 -51 -47 -81 -62 -46 -22
-64 -26 -102 -20 -58 8 -61 11 -37 37 30 33 86 57 160 69 38 6 70 13 73 16 2
2 6 2 9 -1 3 -2 -7 -20 -22 -39z m-416 -218 c0 -32 -4 -58 -9 -58 -17 0 -69
68 -81 106 -12 36 -8 122 6 146 4 6 23 -20 45 -63 31 -60 38 -85 39 -131z
m-2907 45 c-2 -92 -52 -190 -89 -176 -8 3 -22 20 -31 37 -8 17 -24 41 -35 52
-12 14 -18 32 -16 50 2 24 14 35 73 65 94 50 100 48 98 -28z m3286 31 c-29
-32 -114 -74 -149 -74 -42 0 -102 20 -97 33 9 30 90 60 176 66 47 4 88 5 90 4
3 -2 -6 -15 -20 -29z m-513 -55 c57 -113 58 -223 2 -172 -35 32 -58 89 -58
145 0 50 8 98 16 98 2 0 20 -32 40 -71z m432 -61 c-8 -22 -94 -69 -136 -75
-49 -7 -102 2 -127 21 -18 13 -17 15 16 31 54 28 78 33 167 34 63 1 83 -2 80
-11z m-3156 -148 c95 -18 193 -47 243 -70 11 -5 33 -14 48 -20 l29 -10 -82
-90 c-45 -50 -86 -93 -91 -96 -18 -11 -8 -65 25 -134 35 -72 36 -94 8 -117
-27 -22 -58 -14 -119 31 -100 73 -248 116 -403 116 -43 0 -81 4 -85 9 -12 21
161 135 233 153 23 6 42 12 42 14 0 3 -11 22 -24 43 -33 51 -95 103 -172 143
-34 18 -60 36 -58 40 11 17 301 8 406 -12z m568 -26 c221 -183 469 -286 758
-314 347 -34 693 70 976 292 l89 70 158 -158 c88 -88 158 -162 157 -166 -6
-16 -175 -151 -256 -204 -177 -118 -395 -209 -612 -258 -565 -126 -1161 31
-1605 422 l-49 43 159 159 c88 88 162 160 165 160 3 0 30 -21 60 -46z m2744
38 c3 -5 -16 -19 -42 -31 -69 -34 -137 -86 -171 -133 -33 -45 -39 -68 -17 -68
43 0 256 -132 256 -159 0 -5 -53 -11 -117 -14 -171 -8 -275 -41 -387 -122 -52
-38 -86 -44 -110 -19 -23 23 -20 51 14 119 47 94 44 106 -57 214 -79 85 -85
95 -69 106 28 21 226 83 312 99 85 15 380 21 388 8z"/>
<path d="M3011 3903 c-19 -37 -173 -424 -170 -427 2 -2 51 -15 108 -29 121
-31 207 -69 298 -133 36 -25 69 -42 73 -37 4 4 21 120 39 257 l33 249 -29 23
c-109 89 -324 148 -352 97z m211 -36 c66 -29 148 -83 148 -97 0 -5 -30 10 -67
34 -75 47 -115 63 -213 82 l-65 13 70 -3 c48 -2 88 -12 127 -29z m-21 -31 c87
-35 200 -116 161 -116 -4 0 -31 16 -60 36 -74 50 -134 73 -218 85 -45 7 -71
15 -67 21 9 16 118 1 184 -26z m-88 -21 c72 -15 164 -59 218 -105 53 -44 28
-45 -41 -1 -75 49 -157 81 -225 88 -64 6 -78 11 -70 23 8 14 37 12 118 -5z
m55 -64 c70 -28 182 -99 182 -117 0 -20 -7 -18 -67 22 -63 42 -151 79 -208 89
-83 13 -95 17 -95 27 0 17 128 3 188 -21z m-63 -33 c87 -22 235 -111 235 -142
0 -17 -1 -17 -22 -2 -96 68 -213 116 -321 131 -40 5 -46 9 -37 20 13 15 67 12
145 -7z m-82 -39 c87 -13 171 -47 248 -100 64 -43 76 -56 62 -70 -6 -6 -25 2
-50 20 -82 59 -176 98 -295 121 -43 8 -56 15 -51 26 6 17 -2 16 86 3z m72 -76
c64 -20 96 -36 172 -87 46 -30 63 -47 63 -63 0 -13 -2 -23 -5 -23 -2 0 -32 20
-67 44 -78 54 -159 89 -263 111 -44 10 -82 19 -84 21 -2 2 1 10 8 17 13 16 92
7 176 -20z m-35 -55 c116 -36 260 -123 260 -158 0 -28 -8 -26 -85 24 -81 54
-167 89 -264 109 -82 17 -86 20 -77 42 7 20 64 14 166 -17z m-73 -48 c132 -31
323 -138 323 -181 0 -25 -6 -24 -49 10 -76 60 -244 131 -343 146 -44 7 -59 21
-41 38 9 10 12 9 110 -13z"/>
<path d="M3773 3925 c-78 -22 -118 -40 -184 -86 -55 -39 -59 -45 -54 -73 3
-17 16 -123 30 -236 14 -113 29 -215 33 -227 7 -20 10 -19 87 31 103 68 180
101 299 129 89 20 96 24 91 44 -3 11 -42 113 -87 225 l-83 203 -40 2 c-22 1
-63 -4 -92 -12z m117 -15 c0 -5 -18 -10 -39 -10 -60 0 -161 -35 -230 -80 -68
-44 -93 -49 -39 -8 55 42 154 88 210 97 74 12 98 13 98 1z m20 -39 c0 -4 -28
-12 -62 -15 -77 -9 -141 -33 -224 -85 -41 -26 -64 -35 -64 -27 0 27 156 113
235 129 38 8 115 7 115 -2z m20 -40 c0 -10 -23 -15 -101 -26 -52 -7 -172 -61
-225 -101 -46 -36 -59 -20 -14 18 56 47 132 87 196 102 68 17 144 20 144 7z
m10 -45 c0 -9 -24 -17 -73 -25 -78 -13 -168 -50 -242 -101 -49 -34 -55 -36
-55 -16 0 31 146 112 245 137 87 22 125 23 125 5z m25 -45 c8 -14 -4 -19 -76
-30 -79 -13 -157 -44 -229 -90 -30 -20 -61 -40 -67 -44 -9 -5 -13 -2 -13 11 0
21 93 87 165 118 79 34 208 54 220 35z m22 -57 c3 -7 -21 -16 -62 -23 -95 -17
-180 -50 -262 -103 -53 -35 -73 -43 -77 -33 -12 32 141 125 255 155 79 21 140
22 146 4z m21 -55 c2 -13 -8 -19 -49 -24 -77 -11 -184 -50 -261 -95 -37 -22
-70 -45 -73 -50 -10 -17 -35 -11 -35 8 0 20 99 89 182 127 58 26 176 55 213
52 11 -1 21 -9 23 -18z m22 -57 c0 -15 -16 -22 -82 -36 -92 -20 -198 -65 -281
-120 -62 -42 -67 -43 -67 -17 0 40 167 138 292 171 97 25 138 26 138 2z m27
-59 c3 -7 -8 -15 -24 -18 -146 -30 -269 -79 -354 -140 -54 -38 -69 -43 -69
-20 0 19 77 75 165 119 118 60 272 91 282 59z"/>
<path d="M2478 2102 c-86 -108 -83 -102 -66 -119 13 -13 23 -5 82 69 68 86 76
102 52 111 -10 4 -33 -17 -68 -61z"/>
<path d="M4340 2130 c-18 -12 -11 -25 68 -122 l54 -68 42 32 c22 18 43 33 45
35 2 1 -2 9 -8 17 -11 13 -17 12 -42 -7 -19 -14 -33 -18 -37 -11 -12 18 -103
134 -105 134 -1 0 -9 -5 -17 -10z"/>
<path d="M2522 2038 c-46 -69 -58 -95 -50 -105 16 -20 21 -17 48 27 14 22 28
40 33 40 5 0 5 -25 2 -55 -5 -38 -4 -60 5 -70 22 -27 29 -16 32 47 l3 63 45
22 c25 12 49 22 53 22 5 1 -12 -37 -37 -84 -25 -47 -46 -89 -46 -94 0 -12 34
-25 37 -14 2 4 12 23 23 41 21 34 23 34 79 -5 2 -1 -6 -19 -18 -39 -15 -24
-19 -40 -12 -47 18 -18 36 1 85 93 39 74 46 94 35 101 -21 13 -24 12 -48 -31
l-22 -40 -30 17 c-35 21 -35 22 -9 66 l21 35 -39 20 -38 19 -48 -24 c-56 -28
-68 -24 -40 15 34 46 35 51 15 61 -16 9 -26 -1 -79 -81z"/>
<path d="M4241 2066 c-8 -9 -6 -41 8 -121 11 -59 22 -110 25 -112 3 -3 13 -3
22 1 11 4 14 13 10 31 -5 20 0 29 31 49 33 23 39 24 53 11 20 -18 34 -19 48
-2 9 10 -8 28 -75 78 -110 82 -109 81 -122 65z m89 -97 c0 -10 -30 -33 -35
-27 -3 2 -8 20 -11 38 l-7 33 26 -19 c15 -10 27 -22 27 -25z"/>
<path d="M4132 2004 c-15 -10 -21 -22 -18 -37 3 -12 8 -49 11 -82 l7 -60 -59
58 c-63 61 -69 64 -97 44 -17 -12 -15 -19 30 -110 27 -53 51 -97 54 -97 3 0
11 4 18 9 11 6 7 21 -17 69 -17 34 -31 65 -31 69 0 4 27 -19 59 -51 74 -74 86
-69 76 30 -4 41 -4 74 -1 74 2 0 17 -27 32 -60 28 -63 30 -65 52 -51 11 6 4
30 -34 110 -26 55 -50 101 -53 101 -4 0 -17 -7 -29 -16z"/>
<path d="M2849 1913 c-33 -77 -61 -154 -57 -158 2 -2 35 -15 73 -29 69 -25 70
-25 90 -6 18 17 26 18 57 8 28 -8 37 -17 42 -39 4 -20 12 -29 25 -29 18 0 19
5 14 78 -14 196 -28 204 -123 71 -41 -57 -66 -85 -68 -75 -2 9 -17 23 -32 31
-25 13 -28 19 -20 38 63 158 63 157 33 157 -8 0 -23 -21 -34 -47z m201 -124
c0 -27 -3 -30 -22 -23 -32 9 -32 9 -13 38 21 31 35 25 35 -15z"/>
<path d="M3874 1902 c-7 -4 -15 -33 -18 -64 -3 -32 -9 -83 -12 -114 l-6 -56
-34 33 -34 33 20 21 c27 29 25 61 -5 90 -27 28 -42 30 -97 14 -43 -11 -44 -13
-23 -112 9 -40 18 -82 21 -94 5 -25 11 -28 32 -14 11 6 11 17 3 47 -6 21 -8
40 -6 42 3 3 22 -14 42 -37 35 -38 41 -41 76 -35 30 5 41 13 51 39 17 39 68
55 96 30 20 -18 50 -20 50 -2 0 10 -135 187 -143 187 -1 0 -7 -4 -13 -8z
m-116 -84 c19 -19 14 -36 -14 -54 -22 -15 -27 -15 -35 -3 -5 8 -9 26 -9 42 0
22 5 27 23 27 13 0 28 -5 35 -12z m162 -10 c21 -26 17 -38 -11 -38 -14 0 -19
7 -19 30 0 36 6 37 30 8z"/>
<path d="M3161 1844 c-26 -33 -27 -55 -3 -77 9 -9 27 -25 39 -36 25 -23 21
-51 -8 -51 -10 0 -23 9 -29 20 -13 25 -40 26 -40 2 0 -10 7 -28 16 -40 22 -32
79 -27 107 10 27 36 16 73 -28 100 -19 11 -35 26 -35 34 0 22 31 30 45 11 15
-21 45 -22 45 -2 0 23 -37 55 -64 55 -15 0 -33 -11 -45 -26z"/>
<path d="M3374 1841 c-2 -2 -4 -53 -4 -113 l0 -108 48 0 c35 0 54 5 65 18 18
20 23 77 8 87 -5 3 -7 20 -4 39 8 52 -9 73 -63 78 -25 2 -47 1 -50 -1z m76
-62 c0 -10 -2 -19 -4 -19 -2 0 -11 -3 -20 -6 -12 -5 -16 0 -16 18 0 14 3 27 6
31 11 11 34 -5 34 -24z m-2 -68 c21 -13 10 -46 -16 -49 -19 -3 -22 1 -22 27 0
31 13 39 38 22z"/>
<path d="M3518 1845 c-5 -6 -5 -20 8 -157 5 -66 6 -68 34 -68 55 0 91 12 88
29 -2 12 -12 15 -39 13 -32 -3 -37 0 -41 22 -6 32 -2 36 39 36 26 0 33 4 33
20 0 17 -7 20 -40 20 -36 0 -40 3 -40 24 0 21 5 25 37 28 27 2 39 8 41 21 3
15 -5 17 -56 17 -32 0 -61 -2 -64 -5z"/>
</g>
</svg>
